<?xml version="1.0" encoding="UTF-8"?>
<svg width="100px" height="100px" viewBox="0 0 100 100" version="1.1" xmlns="http://www.w3.org/2000/svg" xmlns:xlink="http://www.w3.org/1999/xlink">
  <title>icon</title>
  <g id="Icons" stroke="none" stroke-width="1" fill="none" fill-rule="evenodd">
    <g id="icon" fill="#00907A">
      <path d="M50,100 C22.3857625,100 0,77.6142375 0,50 C0,22.3857625 22.3857625,0 50,0 C77.6142375,0 100,22.3857625 100,50 C100,77.6142375 77.6142375,100 50,100 Z M80,47.756399 C80,45.0753183 78.0187296,40.0726312 71.6120532,40.0524524 C68.8329907,40.0437152 66.7389684,41.3316241 65.775793,42.1795513 L65.775793,40.27754 L61.4903908,40.2752517 L61.4903908,42.1795513 C60.4404672,41.2274015 59.1646239,40.3678247 57.8806675,40.1649962 C56.5157877,39.9488538 55.1509079,40.0131349 53.4629587,40.547562 C52.0593854,40.9917044 51.1646517,41.6476206 50.2982099,42.6738288 C48.5091585,40.5721094 45.6828733,40.1520984 43.4299167,40.0657663 C40.8651242,39.9677845 38.2791128,40.3000072 36.2639336,41.8454564 C34.3215647,40.8028138 31.8670277,39.9840108 29.1426769,40.000237 C26.7470122,40.0145911 24.4518256,40.5814707 22.8260772,42.0557739 C22.2396427,42.5874966 21.9762777,43.009796 21.6858689,43.76411 C21.1104601,45.2579679 21.3499017,46.9833624 21.9914639,47.8837129 C23.188048,49.563133 24.5281724,50.2155126 26.9352786,50.4994725 C29.0496878,50.7491076 30.5304399,50.7497317 32.0948197,51.0522062 C32.8339476,51.1953303 33.5121229,51.769491 33.5121229,52.6207466 C33.5121229,53.6138782 32.189057,55.241499 28.9951841,55.0230683 C26.3340741,54.8416668 25.3290849,54.4478674 22.8260772,52.7386992 L20,55.1370683 C20,55.1370683 20.4822118,55.541061 20.8106899,55.7678129 C21.1271024,55.9860356 21.4562046,56.1915685 21.7957084,56.3833714 L21.8040295,56.3833714 C24.65403,57.9978863 28.2608409,58.6729412 31.5256517,58.1243681 C33.1270608,57.8545542 34.6465063,57.291003 35.953762,56.3983495 C37.0105505,57.1572402 38.4068428,58.458255 41.7869018,58.2986966 C43.9144168,58.1982185 45.4937747,58.2785178 46.9711984,56.4954992 L46.9711984,58.2772696 L51.109732,58.2772696 L51.1086918,56.4954992 C51.1086918,56.4954992 51.7614875,57.049481 52.220192,57.3384336 C54.8484334,58.9941383 59.0287808,58.3677623 61.5007922,56.3929408 L61.506409,58.6979047 C61.4356791,60.1199925 60.1916643,61.0935694 58.8839925,61.6417264 C56.6254191,62.5878434 54.5678019,61.7397082 52.7302797,60.379405 L49.594239,62.5807704 C50.440918,63.4711355 51.2147867,63.9910005 52.4211483,64.5711941 C55.8128569,66.2013112 59.7808065,65.6454571 62.5186793,63.9404494 C64.323957,62.8158434 65.0225192,61.4370256 65.4585484,59.3174158 C65.690085,58.1903134 65.7129682,57.3652694 65.7483332,56.3792108 C65.7493733,56.3505028 65.7493733,56.3247072 65.7506215,56.2995356 C65.7872346,56.3263714 65.8236397,56.3529992 65.8590047,56.3792108 C66.7321034,57.0189007 67.504724,57.4929994 68.685914,57.8703644 C70.592918,58.4786419 72.7622469,58.5061017 75.1841232,57.8426965 C76.3110176,57.533357 77.3056053,57.0392876 78.1938902,56.3792108 L78.1957624,56.3792108 C78.6761019,56.0201524 79.1258612,55.6136633 79.5492006,55.1622398 L76.8444045,53.1408197 C75.9280358,53.925714 74.5644041,54.7174733 73.0100097,54.9236303 C71.2147174,55.1622398 69.1789433,54.821696 68.0763883,53.5670716 C67.4808006,52.8891044 67.2729794,52.6758744 67.2729794,50.957969 L80,50.9729471 L80,47.756399 Z M67.3722094,47.706264 C67.3722094,46.6278404 67.6416072,45.7651432 68.0845015,45.0942489 C68.9688338,43.7564129 70.5461114,43.1828763 72.0628526,43.1859968 C73.5554623,43.1893252 75.0938385,43.7524604 76.0091672,44.9785847 C76.5261198,45.6702819 76.8444045,46.5735448 76.8444045,47.706264 L67.3722094,47.706264 Z M30.7076808,47.3960924 C28.7316111,47.2850048 26.9136436,47.2450632 25.9261288,46.4152346 C25.3577929,45.9373914 25.4705448,44.5629423 26.2670887,44.0647122 C27.4131218,43.3482596 28.7998447,43.3721829 29.598885,43.415661 C31.2167283,43.5034494 33.0800462,44.0590955 34.5468603,45.0850956 L36.2639336,43.415661 C36.2639336,43.415661 38.0764923,45.1593621 38.0764923,45.0850956 C40.1900694,43.5396465 40.9358542,43.5356939 42.9044348,43.5373581 C45.5965412,43.5396465 46.3693698,44.0886356 46.7652494,44.7098109 C47.0155086,45.101738 46.7683698,47.4949063 46.7683698,47.4949063 C46.7683698,47.4949063 44.3916358,47.5716691 42.677683,47.4813844 C41.3155075,47.4098223 40.5537045,47.4044136 39.1836239,47.6390706 C37.9589558,47.848764 37.1172695,48.2248809 36.2639336,48.9671292 C36.2639336,48.9671292 35.533751,48.4312459 34.7384552,48.0490962 C33.2918199,47.3542785 32.2568745,47.4830486 30.7076808,47.3960924 Z M45.346282,54.7559587 C44.4594534,55.0471996 43.04111,55.1957325 41.5312339,55.0045537 C40.2747373,54.8458273 39.0783611,54.7522142 38.5888684,53.5670716 C38.3238391,52.9248854 38.3795909,52.3353305 38.7921129,51.7867574 C39.439916,50.9248923 40.9400148,50.7576368 41.8397412,50.7476514 L46.7683698,50.7476514 C46.8996363,52.0956809 47.3107021,54.110652 45.346282,54.7559587 Z M52.9004476,49.0041584 C52.9345644,48.0168516 53.0238089,46.9606872 53.124079,45.9236615 C53.1731739,45.4177344 53.7552397,44.8065445 54.5734187,44.3380627 C55.3164991,43.9128509 56.254503,43.6053837 57.165255,43.600391 C57.8577843,43.5964384 58.5688282,43.7341538 59.1977006,43.9885735 C60.2944307,44.4312598 61.1446462,45.2282198 61.2326426,46.247771 C61.3135659,47.1972165 61.4069711,48.0952787 61.449409,48.9558956 C61.5018324,50.0309907 61.4766609,51.0482537 61.2542776,52.0338962 C61.1115695,52.6619364 60.8149199,53.1946993 60.2018577,53.704787 C59.5093284,54.2804039 58.4365216,54.7917397 57.165255,54.7168492 C55.3859809,54.6126266 53.7951813,53.8722505 53.3250353,52.8373051 C52.9299878,51.9658706 52.8467761,50.5714507 52.9004476,49.0041584 Z" id="Combined-Shape"></path>
    </g>
  </g>
</svg>